<svg width="300" height="300" viewBox="0 0 300 300" fill="none" xmlns="http://www.w3.org/2000/svg">
<path d="M74.4 224.4C55.6 224.4 39 217.2 28.8 204L46.8 182.4C54.4 192.6 62.8 197.8 72.8 197.8C85.8 197.8 92.6 190 92.6 174.6V108H43.4V82H124.8V172.8C124.8 207.4 107.4 224.4 74.4 224.4ZM202.803 224.4C180.603 224.4 158.203 217.8 145.803 208.2L156.803 183.8C168.603 192.4 186.203 198.4 203.003 198.4C222.203 198.4 230.003 192 230.003 183.4C230.003 157.2 148.603 175.2 148.603 123.2C148.603 99.4 167.803 79.6 207.603 79.6C225.203 79.6 243.203 83.8 256.203 92L246.203 116.6C233.203 109.2 219.803 105.6 207.403 105.6C188.203 105.6 180.803 112.8 180.803 121.6C180.803 147.4 262.203 129.6 262.203 181C262.203 204.4 242.803 224.4 202.803 224.4Z" fill="#105705"/>
</svg>
